<svg width="28" height="28" viewBox="0 0 28 28" fill="none" xmlns="http://www.w3.org/2000/svg">
<path fill-rule="evenodd" clip-rule="evenodd" d="M9.33263 0.777778H25.0808C25.3512 0.312821 25.8568 0 26.4358 0C27.2997 0 28 0.696446 28 1.55556C28 2.06448 27.7542 2.51632 27.3743 2.80012V18.9777C27.7542 19.2615 28 19.7133 28 20.2222C28 21.0154 27.4031 21.6699 26.6316 21.7657L21.5085 26.8603C21.484 26.8847 21.4582 26.9071 21.4315 26.9276C21.2271 27.5502 20.6384 28 19.9441 28C19.3652 28 18.8596 27.6872 18.5892 27.2223H2.9192C2.64873 27.6872 2.14322 28 1.56425 28C0.700337 28 0 27.3036 0 26.4444C0 25.8687 0.314569 25.366 0.782123 25.097V9.12523C0.314569 8.85627 0 8.35355 0 7.77778C0 6.91867 0.700337 6.22222 1.56425 6.22222C1.69666 6.22222 1.82522 6.23858 1.94802 6.26938L6.43396 1.80836C6.42044 1.72608 6.41341 1.64164 6.41341 1.55556C6.41341 0.696446 7.11374 0 7.97765 0C8.55665 0 9.06217 0.312821 9.33263 0.777778ZM19.3913 24.9888C19.0518 25.1164 18.7687 25.358 18.5891 25.6667H3.45243L7.76806 21.375C7.83662 21.3842 7.90658 21.3889 7.97765 21.3889C8.45594 21.3889 8.88408 21.1754 9.17101 20.8391H19.3913V24.9888ZM25.8101 3.43329V18.7961C25.563 18.9035 25.3492 19.0724 25.1883 19.2835H20.9555V8.96451C21.2937 8.67917 21.5084 8.2534 21.5084 7.77778C21.5084 7.75588 21.5079 7.73409 21.507 7.71241L25.8101 3.43329ZM20.6336 6.38109L24.704 2.33333H9.33263C9.1963 2.5677 9.00025 2.76341 8.76517 2.89989V7.16095H18.5077C18.7478 6.60868 19.3006 6.22222 19.9441 6.22222C20.1916 6.22222 20.4256 6.27936 20.6336 6.38109ZM18.6967 8.71651H8.76517V18.489C9.07296 18.6677 9.31385 18.9479 9.44139 19.2835H19.3913V9.23338C19.1133 9.12894 18.8732 8.94805 18.6967 8.71651ZM20.9555 20.8391H24.9993C25.034 20.9187 25.0751 20.9949 25.122 21.067L20.9555 25.2104V20.8391ZM2.81166 8.71651C2.68582 8.88163 2.52758 9.02098 2.34637 9.12523V24.5667L6.52496 20.4114C6.453 20.2327 6.41341 20.0376 6.41341 19.8333C6.41341 19.2553 6.7304 18.751 7.20092 18.4828V8.71651H2.81166ZM7.20092 3.24555L3.26364 7.16095H7.20092V3.24555Z" fill="#41BBFF"/>
</svg>
