<svg width="29" height="32" viewBox="0 0 29 32" fill="none" xmlns="http://www.w3.org/2000/svg">
<path fill-rule="evenodd" clip-rule="evenodd" d="M19.6923 0L25.6 5.2V19.5092C24.924 19.308 24.208 19.2 23.4667 19.2V6.26667H18.6256V2.13333H2.13333V25.6H16.0756C16.0258 25.9484 16 26.3045 16 26.6667C16 27.0288 16.0258 27.385 16.0756 27.7333H0V0H19.6923ZM21.1593 4.13333L20.759 3.78092V4.13333H21.1593Z" fill="#41BBFF"/>
<path d="M20.2667 19.9185C19.5135 20.2763 18.8297 20.7565 18.2411 21.3333H5.33333V19.2H20.2667V19.9185Z" fill="#41BBFF"/>
<path d="M8.53333 8.53333H20.2667V10.6667H8.53333V8.53333Z" fill="#41BBFF"/>
<path d="M20.2667 13.8667H5.33333V16H20.2667V13.8667Z" fill="#41BBFF"/>
<path fill-rule="evenodd" clip-rule="evenodd" d="M23.4667 21.3333C20.5211 21.3333 18.1333 23.7211 18.1333 26.6666C18.1333 29.6122 20.5211 32 23.4667 32C26.4122 32 28.8 29.6122 28.8 26.6666C28.8 23.7211 26.4122 21.3333 23.4667 21.3333ZM26.121 25.8826C26.395 25.5359 26.336 25.0328 25.9893 24.7589C25.6426 24.485 25.1395 24.544 24.8656 24.8907L22.872 27.4138L21.7685 26.398C21.4434 26.0988 20.9373 26.1198 20.6381 26.4448C20.3388 26.7699 20.3598 27.276 20.6849 27.5752L22.4231 29.1752C22.587 29.326 22.8062 29.4017 23.0281 29.3841C23.2501 29.3666 23.4546 29.2573 23.5926 29.0826L26.121 25.8826Z" fill="#41BBFF"/>
</svg>
