<svg width="30" height="22" viewBox="0 0 30 22" fill="none" xmlns="http://www.w3.org/2000/svg">
<path d="M15 17.2857C12.3839 17.2857 10.2632 15.1751 10.2632 12.5714C10.2632 9.9678 12.3839 7.85714 15 7.85714C17.6161 7.85714 19.7368 9.9678 19.7368 12.5714C19.7368 15.1751 17.6161 17.2857 15 17.2857Z" fill="#41BBFF"/>
<path fill-rule="evenodd" clip-rule="evenodd" d="M2.36842 2.35714C1.06038 2.35714 0 3.41247 0 4.71429V19.6429C0 20.9447 1.06038 22 2.36842 22H27.6316C28.9396 22 30 20.9447 30 19.6429V4.71429C30 3.41247 28.9396 2.35714 27.6316 2.35714H22.9588C22.2133 2.35714 21.5515 1.8824 21.3158 1.17857C21.0801 0.47474 20.4182 0 19.6728 0H10.1706C9.42191 0 8.75601 0.473612 8.51351 1.17857C8.27102 1.88353 7.60511 2.35714 6.85643 2.35714H2.36842ZM8.68421 12.5714C8.68421 9.09992 11.5119 6.28571 15 6.28571C18.4881 6.28571 21.3158 9.09992 21.3158 12.5714C21.3158 16.0429 18.4881 18.8571 15 18.8571C11.5119 18.8571 8.68421 16.0429 8.68421 12.5714Z" fill="#41BBFF"/>
</svg>
