<svg width="28" height="34" viewBox="0 0 28 34" fill="none" xmlns="http://www.w3.org/2000/svg">
<path d="M4.21882 22.1319L0 29.4391L5.99422 28.0686L7.80441 33.945L12.3611 26.0526L11.2649 25.4891C11.0967 25.4026 10.9095 25.3599 10.7205 25.3648L8.22507 25.4298C7.86173 25.4393 7.51614 25.2729 7.29701 24.9829L5.79199 22.9914C5.678 22.8405 5.52786 22.7208 5.35543 22.6432L4.21882 22.1319Z" fill="#41BBFF"/>
<path d="M15.6389 26.0526L20.1956 33.945L22.0058 28.0686L28 29.4391L23.7812 22.1319L22.6446 22.6432C22.4721 22.7208 22.322 22.8405 22.208 22.9914L20.703 24.9829C20.4839 25.2729 20.1383 25.4393 19.7749 25.4298L17.2795 25.3648C17.0905 25.3599 16.9033 25.4026 16.7351 25.4891L15.6389 26.0526Z" fill="#41BBFF"/>
<path d="M14 19.0099C10.2672 19.0099 7.24118 15.9838 7.24118 12.251C7.24118 8.51824 10.2672 5.49221 14 5.49221C17.7328 5.49221 20.7588 8.51824 20.7588 12.251C20.7588 15.9838 17.7328 19.0099 14 19.0099Z" fill="#41BBFF"/>
<path fill-rule="evenodd" clip-rule="evenodd" d="M14.515 0.124636C14.1918 -0.0415452 13.8082 -0.0415454 13.485 0.124636L11.7251 1.02937C11.5569 1.11582 11.3697 1.15855 11.1807 1.15362L9.20259 1.10206C8.83924 1.09259 8.49366 1.25901 8.27452 1.54899L7.08149 3.1277C6.9675 3.27855 6.81736 3.39828 6.64493 3.47585L4.84032 4.28767C4.50885 4.43679 4.2697 4.73668 4.19808 5.09302L3.80818 7.03302C3.77092 7.2184 3.6876 7.39141 3.5659 7.53612L2.29225 9.05053C2.0583 9.3287 1.97295 9.70265 2.06303 10.0548L2.55348 11.9718C2.60034 12.155 2.60034 12.347 2.55348 12.5302L2.06303 14.4473C1.97295 14.7994 2.0583 15.1734 2.29225 15.4515L3.5659 16.9659C3.6876 17.1106 3.77092 17.2837 3.80818 17.469L4.19808 19.409C4.2697 19.7654 4.50885 20.0653 4.84032 20.2144L6.64493 21.0262C6.81736 21.1038 6.9675 21.2235 7.08149 21.3744L8.27452 22.9531C8.49366 23.243 8.83924 23.4095 9.20259 23.4L11.1807 23.3484C11.3697 23.3435 11.5569 23.3862 11.7251 23.4727L13.485 24.3774C13.8082 24.5436 14.1918 24.5436 14.515 24.3774L16.2749 23.4727C16.4431 23.3862 16.6303 23.3435 16.8193 23.3484L18.7974 23.4C19.1608 23.4095 19.5063 23.243 19.7255 22.9531L20.9185 21.3744C21.0325 21.2235 21.1826 21.1038 21.3551 21.0262L23.1597 20.2144C23.4911 20.0653 23.7303 19.7654 23.8019 19.409L24.1918 17.469C24.2291 17.2837 24.3124 17.1107 24.4341 16.9659L25.7078 15.4515C25.9417 15.1734 26.0271 14.7994 25.937 14.4473L25.4465 12.5302C25.3997 12.347 25.3997 12.155 25.4465 11.9718L25.937 10.0548C26.0271 9.70265 25.9417 9.3287 25.7078 9.05053L24.4341 7.53612C24.3124 7.39141 24.2291 7.2184 24.1918 7.03302L23.8019 5.09302C23.7303 4.73668 23.4911 4.43679 23.1597 4.28767L21.3551 3.47585C21.1826 3.39828 21.0325 3.27855 20.9185 3.1277L19.7255 1.54899C19.5063 1.25902 19.1608 1.09259 18.7974 1.10206L16.8193 1.15362C16.6303 1.15855 16.4431 1.11582 16.2749 1.02937L14.515 0.124636ZM4.98824 12.251C4.98824 7.27397 9.02294 3.23927 14 3.23927C18.9771 3.23927 23.0118 7.27397 23.0118 12.251C23.0118 17.2281 18.9771 21.2628 14 21.2628C9.02294 21.2628 4.98824 17.2281 4.98824 12.251Z" fill="#41BBFF"/>
</svg>
