<svg width="34" height="17" viewBox="0 0 34 17" fill="none" xmlns="http://www.w3.org/2000/svg">
<path fill-rule="evenodd" clip-rule="evenodd" d="M0 8.5C0 3.80558 3.9868 0 8.90476 0H25.0952C30.0132 0 34 3.80558 34 8.5C34 13.1944 30.0132 17 25.0952 17H8.90476C3.9868 17 0 13.1944 0 8.5ZM7.28571 4.63636H9.71429V6.95455H12.1429V9.27273H9.71429V11.5909H7.28571V9.27273H4.85714V6.95455H7.28571V4.63636ZM21.0476 9.65909C21.0476 8.59218 21.9537 7.72727 23.0714 7.72727C24.1891 7.72727 25.0952 8.59218 25.0952 9.65909C25.0952 10.726 24.1891 11.5909 23.0714 11.5909C21.9537 11.5909 21.0476 10.726 21.0476 9.65909ZM27.119 4.63636C26.0013 4.63636 25.0952 5.50127 25.0952 6.56818C25.0952 7.6351 26.0013 8.5 27.119 8.5C28.2368 8.5 29.1429 7.6351 29.1429 6.56818C29.1429 5.50127 28.2368 4.63636 27.119 4.63636Z" fill="#41BBFF"/>
</svg>
