<svg width="192" height="180" viewBox="0 0 192 180" fill="none" xmlns="http://www.w3.org/2000/svg">
<path fill-rule="evenodd" clip-rule="evenodd" d="M0 89.5C0 40.0705 40.0705 0 89.5 0C138.929 0 179 40.0705 179 89.5C179 111.392 171.14 131.448 158.088 147H144.6C139 147 135.8 150.2 135.8 155C135.8 158.734 137.736 161.499 141.232 162.544C126.625 172.908 108.774 179 89.5 179C40.0705 179 0 138.929 0 89.5ZM89.5 154C53.8776 154 25 125.122 25 89.5C25 53.8776 53.8776 25 89.5 25C125.122 25 154 53.8776 154 89.5C154 125.122 125.122 154 89.5 154Z" fill="white"/>
<path d="M140.6 171C140.6 171 139 172.6 139 175C139 177.4 140.6 179 143.4 179H159.8C162.6 179 164.2 177.4 164.2 175C164.2 172.6 162.6 171 159.8 171H152.2V170.6L162.2 159C162.2 159 163.8 157.4 163.8 155C163.8 152.6 162.2 151 159.4 151H143.8C141 151 139.4 152.6 139.4 155C139.4 157.4 141 159 143.8 159H151.4V159.4L140.6 171Z" fill="white"/>
<path d="M177.595 160.2L172.395 152.6C172.395 152.6 170.995 150.6 168.795 150.6C165.795 150.6 164.195 152.2 164.195 154.6C164.195 156.2 165.795 158.2 165.795 158.2L173.395 169V175.4C173.395 177.8 174.995 179.4 177.795 179.4C180.595 179.4 182.195 177.8 182.195 175.4V169L189.795 158.2C189.795 158.2 191.395 156.2 191.395 154.6C191.395 152.2 189.795 150.6 186.795 150.6C184.595 150.6 183.195 152.6 183.195 152.6L177.995 160.2H177.595Z" fill="white"/>
</svg>
