<svg width="31" height="24" viewBox="0 0 31 24" fill="none" xmlns="http://www.w3.org/2000/svg">
<path fill-rule="evenodd" clip-rule="evenodd" d="M3.80005 0.578979C2.14319 0.578979 0.800049 1.92212 0.800049 3.57898V16.779C0.800049 18.4358 2.14319 19.779 3.80005 19.779H22.8124C23.3852 19.779 23.9426 19.9646 24.401 20.3079L28.9335 23.7027C29.0012 23.7534 29.0742 23.7966 29.1512 23.8315C29.9238 24.1817 30.8 23.6169 30.8 22.7687V3.57898C30.8 1.92213 29.4569 0.578979 27.8 0.578979H3.80005ZM10.2947 4.57892C9.41105 4.57892 8.6947 5.29526 8.6947 6.17892C8.6947 7.06257 9.41105 7.77892 10.2947 7.77892H24.4631C25.3468 7.77892 26.0631 7.06257 26.0631 6.17892C26.0631 5.29526 25.3468 4.57892 24.4631 4.57892H10.2947ZM4.76858 11.7789C3.88492 11.7789 3.16858 12.4953 3.16858 13.3789C3.16858 14.2626 3.88493 14.979 4.76858 14.979H24.4633C25.347 14.979 26.0633 14.2626 26.0633 13.3789C26.0633 12.4953 25.347 11.7789 24.4633 11.7789H4.76858Z" fill="#41BBFF"/>
</svg>
