<svg width="74" height="74" viewBox="0 0 74 74" fill="none" xmlns="http://www.w3.org/2000/svg">
<path d="M0 37C0 16.5655 16.5655 0 37 0C57.4345 0 74 16.5655 74 37C74 57.4345 57.4345 74 37 74C16.5655 74 0 57.4345 0 37Z" fill="white"/>
<path d="M11.5 39.5981C9.5 38.4434 9.5 35.5566 11.5 34.4019L25 26.6077C27 25.453 29.5 26.8964 29.5 29.2058V34H44.5V29.2058C44.5 26.8964 47 25.453 49 26.6077L62.5 34.4019C64.5 35.5566 64.5 38.4434 62.5 39.5981L49 47.3923C47 48.547 44.5 47.1036 44.5 44.7942V40H29.5V44.7942C29.5 47.1036 27 48.547 25 47.3923L11.5 39.5981Z" fill="#6D6D6D"/>
</svg>
